<?xml version="1.0" encoding="UTF-8"?>
<svg xmlns="http://www.w3.org/2000/svg" xmlns:xlink="http://www.w3.org/1999/xlink" width="900pt" height="600pt" viewBox="0 0 900 600" version="1.1">
<g id="surface1">
<path style=" stroke:none;fill-rule:nonzero;fill:rgb(14.498901%,95.698547%,93.299866%);fill-opacity:1;" d="M 410.972656 257.53125 L 410.972656 241.941406 C 405.5625 241.085938 400.097656 240.617188 394.621094 240.539063 C 341.589844 240.425781 294.636719 274.789063 278.714844 325.375 C 262.789063 375.957031 281.585938 431.023438 325.117188 461.308594 C 292.507813 426.410156 283.453125 375.609375 302 331.59375 C 320.542969 287.578125 363.222656 258.570313 410.972656 257.53125 "/>
<path style=" stroke:none;fill-rule:nonzero;fill:rgb(14.498901%,95.698547%,93.299866%);fill-opacity:1;" d="M 413.914063 434.097656 C 443.5625 434.058594 467.933594 410.695313 469.234375 381.074219 L 469.234375 116.738281 L 517.527344 116.738281 C 516.542969 111.214844 516.070313 105.609375 516.121094 100 L 450.070313 100 L 450.070313 364.082031 C 448.96875 393.855469 424.539063 417.4375 394.75 417.488281 C 385.84375 417.410156 377.085938 415.222656 369.195313 411.101563 C 379.570313 425.472656 396.1875 434.019531 413.914063 434.097656 M 607.726563 206.425781 L 607.726563 191.734375 C 589.953125 191.738281 572.574219 186.496094 557.773438 176.65625 C 570.75 191.742188 588.285156 202.191406 607.726563 206.425781 "/>
<path style=" stroke:none;fill-rule:nonzero;fill:rgb(99.598694%,17.298889%,33.299255%);fill-opacity:1;" d="M 557.773438 176.65625 C 543.191406 160.050781 535.152344 138.707031 535.160156 116.609375 L 517.527344 116.609375 C 522.128906 141.300781 536.683594 163.015625 557.773438 176.65625 M 394.621094 306.589844 C 369.175781 306.722656 347.085938 324.152344 341.042969 348.871094 C 335 373.585938 346.554688 399.242188 369.066406 411.101563 C 356.871094 394.257813 355.144531 371.996094 364.609375 353.480469 C 374.070313 334.960938 393.117188 323.3125 413.914063 323.328125 C 419.457031 323.394531 424.964844 324.257813 430.265625 325.882813 L 430.265625 258.679688 C 424.851563 257.867188 419.386719 257.441406 413.914063 257.402344 L 410.972656 257.402344 L 410.972656 308.507813 C 405.644531 307.078125 400.136719 306.433594 394.621094 306.589844 "/>
<path style=" stroke:none;fill-rule:nonzero;fill:rgb(99.598694%,17.298889%,33.299255%);fill-opacity:1;" d="M 607.726563 206.425781 L 607.726563 257.53125 C 574.824219 257.464844 542.777344 247.050781 516.121094 227.761719 L 516.121094 362.039063 C 515.980469 429.042969 461.625 483.285156 394.621094 483.285156 C 369.738281 483.328125 345.453125 475.652344 325.117188 461.308594 C 359.054688 497.808594 411.867188 509.824219 458.253906 491.597656 C 504.640625 473.371094 535.148438 428.613281 535.160156 378.777344 L 535.160156 244.882813 C 561.902344 264.046875 593.988281 274.324219 626.890625 274.265625 L 626.890625 208.46875 C 620.449219 208.449219 614.027344 207.765625 607.726563 206.425781 "/>
<path style=" stroke:none;fill-rule:nonzero;fill:rgb(0%,0%,0%);fill-opacity:1;" d="M 516.121094 362.039063 L 516.121094 227.761719 C 542.859375 246.941406 574.949219 257.222656 607.855469 257.148438 L 607.855469 206.042969 C 588.414063 201.9375 570.839844 191.625 557.773438 176.65625 C 536.683594 163.015625 522.128906 141.300781 517.527344 116.609375 L 469.234375 116.609375 L 469.234375 381.074219 C 468.265625 404.671875 452.464844 425.0625 429.855469 431.890625 C 407.25 438.714844 382.800781 430.472656 368.941406 411.355469 C 346.425781 399.5 334.871094 373.839844 340.914063 349.125 C 346.957031 324.410156 369.046875 306.976563 394.492188 306.847656 C 400.039063 306.894531 405.546875 307.757813 410.847656 309.402344 L 410.847656 258.296875 C 362.828125 259.109375 319.824219 288.21875 301.226563 332.496094 C 282.632813 376.773438 291.953125 427.859375 324.992188 462.714844 C 345.527344 476.582031 369.84375 483.769531 394.621094 483.285156 C 461.625 483.285156 515.980469 429.042969 516.121094 362.039063 "/>
</g>
</svg>
